<svg width="31" height="97" viewBox="0 0 31 97" fill="none" xmlns="http://www.w3.org/2000/svg">
<path d="M29.1046 2.86298L29.212 1.76562H28.1094H3.03125H1.92962L2.03592 2.86212L8.53982 69.952L8.62741 70.8555H9.53516H21.5469H22.4538L22.5421 69.9528L29.1046 2.86298ZM7.23174 92.5207L7.24587 92.5354L7.26059 92.5495C8.32617 93.5725 9.55995 94.38 10.9543 94.9724C12.4106 95.6139 13.9525 95.9336 15.5703 95.9336C17.1493 95.9336 18.6524 95.6138 20.0694 94.9725C21.5022 94.3801 22.743 93.5696 23.7774 92.5352C24.8444 91.4682 25.6771 90.2297 26.2733 88.8268C26.9147 87.3705 27.2344 85.8287 27.2344 84.2109C27.2344 82.632 26.9146 81.129 26.2733 79.7121C25.68 78.2771 24.8491 77.0364 23.7776 76.0037C22.7449 74.9322 21.5043 74.1013 20.0694 73.508C18.6524 72.8667 17.1493 72.5469 15.5703 72.5469C13.9525 72.5469 12.4106 72.8666 10.9543 73.5081C9.55141 74.1042 8.31298 74.9369 7.24602 76.0038C6.21314 77.0367 5.38416 78.2752 4.75305 79.7057L4.75017 79.7123L4.74739 79.7188C4.14641 81.1354 3.84766 82.6358 3.84766 84.2109C3.84766 85.8215 4.14501 87.3575 4.74329 88.8104L4.75015 88.8271L4.7576 88.8435C5.38815 90.2307 6.21239 91.4588 7.23174 92.5207Z" fill="white" stroke="black" stroke-width="2"/>
</svg>
